<svg xmlns="http://www.w3.org/2000/svg" xmlns:xlink="http://www.w3.org/1999/xlink" width="500" zoomAndPan="magnify" viewBox="0 0 375 374.999991" height="500" preserveAspectRatio="xMidYMid meet" version="1.0"><defs><clipPath id="d3271f5d12"><path d="M 112.5 112.5 L 262.5 112.5 L 262.5 262.5 L 112.5 262.5 Z M 112.5 112.5 " clip-rule="nonzero"/></clipPath></defs><g clip-path="url(#d3271f5d12)"><path fill="#ffffff" d="M 112.5 112.5 L 262.5 112.5 L 262.5 262.5 L 112.5 262.5 Z M 112.5 112.5 " fill-opacity="1" fill-rule="nonzero"/></g><path stroke-linecap="butt" transform="matrix(5.172413, 0, 0, 5.172413, 112.499997, 112.499993)" fill-opacity="1" fill="#ffffff" fill-rule="nonzero" stroke-linejoin="miter" d="M 1.999792 2.499741 L 8.999819 2.499741 M 12.000262 2.499741 L 13.000158 2.499741 M 14.99995 2.499741 L 15.999846 2.499741 M 17.999638 2.499741 L 19.000289 2.499741 M 20.000185 2.499741 L 27.000212 2.499741 M 1.999792 3.499637 L 2.999688 3.499637 M 7.999923 3.499637 L 8.999819 3.499637 M 12.000262 3.499637 L 13.000158 3.499637 M 14.000054 3.499637 L 19.000289 3.499637 M 20.000185 3.499637 L 21.000081 3.499637 M 26.000316 3.499637 L 27.000212 3.499637 M 1.999792 4.500288 L 2.999688 4.500288 M 4.00034 4.500288 L 7.000027 4.500288 M 7.999923 4.500288 L 8.999819 4.500288 M 9.999715 4.500288 L 12.000262 4.500288 M 15.999846 4.500288 L 16.999742 4.500288 M 20.000185 4.500288 L 21.000081 4.500288 M 21.999977 4.500288 L 24.999665 4.500288 M 26.000316 4.500288 L 27.000212 4.500288 M 1.999792 5.500184 L 2.999688 5.500184 M 4.00034 5.500184 L 7.000027 5.500184 M 7.999923 5.500184 L 8.999819 5.500184 M 9.999715 5.500184 L 11.000366 5.500184 M 12.000262 5.500184 L 13.000158 5.500184 M 14.99995 5.500184 L 17.999638 5.500184 M 20.000185 5.500184 L 21.000081 5.500184 M 21.999977 5.500184 L 24.999665 5.500184 M 26.000316 5.500184 L 27.000212 5.500184 M 1.999792 6.50008 L 2.999688 6.50008 M 4.00034 6.50008 L 7.000027 6.50008 M 7.999923 6.50008 L 8.999819 6.50008 M 9.999715 6.50008 L 14.000054 6.50008 M 14.99995 6.50008 L 15.999846 6.50008 M 17.999638 6.50008 L 19.000289 6.50008 M 20.000185 6.50008 L 21.000081 6.50008 M 21.999977 6.50008 L 24.999665 6.50008 M 26.000316 6.50008 L 27.000212 6.50008 M 1.999792 7.499976 L 2.999688 7.499976 M 7.999923 7.499976 L 8.999819 7.499976 M 9.999715 7.499976 L 11.000366 7.499976 M 12.000262 7.499976 L 13.000158 7.499976 M 14.000054 7.499976 L 14.99995 7.499976 M 16.999742 7.499976 L 19.000289 7.499976 M 20.000185 7.499976 L 21.000081 7.499976 M 26.000316 7.499976 L 27.000212 7.499976 M 1.999792 8.499872 L 8.999819 8.499872 M 9.999715 8.499872 L 11.000366 8.499872 M 12.000262 8.499872 L 13.000158 8.499872 M 14.000054 8.499872 L 14.99995 8.499872 M 15.999846 8.499872 L 16.999742 8.499872 M 17.999638 8.499872 L 19.000289 8.499872 M 20.000185 8.499872 L 27.000212 8.499872 M 9.999715 9.499768 L 12.000262 9.499768 M 13.000158 9.499768 L 14.99995 9.499768 M 15.999846 9.499768 L 19.000289 9.499768 M 1.999792 10.499664 L 2.999688 10.499664 M 4.00034 10.499664 L 8.999819 10.499664 M 12.000262 10.499664 L 13.000158 10.499664 M 14.000054 10.499664 L 16.999742 10.499664 M 20.000185 10.499664 L 24.999665 10.499664 M 1.999792 11.500315 L 4.00034 11.500315 M 6.000131 11.500315 L 7.999923 11.500315 M 8.999819 11.500315 L 11.000366 11.500315 M 14.99995 11.500315 L 15.999846 11.500315 M 17.999638 11.500315 L 20.000185 11.500315 M 21.000081 11.500315 L 21.999977 11.500315 M 24.999665 11.500315 L 26.000316 11.500315 M 1.999792 12.500211 L 2.999688 12.500211 M 4.00034 12.500211 L 5.000236 12.500211 M 6.000131 12.500211 L 7.000027 12.500211 M 7.999923 12.500211 L 8.999819 12.500211 M 12.000262 12.500211 L 13.000158 12.500211 M 14.99995 12.500211 L 21.000081 12.500211 M 22.999873 12.500211 L 23.999769 12.500211 M 24.999665 12.500211 L 27.000212 12.500211 M 4.00034 13.500107 L 6.000131 13.500107 M 7.000027 13.500107 L 7.999923 13.500107 M 8.999819 13.500107 L 9.999715 13.500107 M 11.000366 13.500107 L 13.000158 13.500107 M 14.000054 13.500107 L 14.99995 13.500107 M 16.999742 13.500107 L 22.999873 13.500107 M 26.000316 13.500107 L 27.000212 13.500107 M 1.999792 14.500003 L 2.999688 14.500003 M 5.000236 14.500003 L 6.000131 14.500003 M 7.999923 14.500003 L 8.999819 14.500003 M 9.999715 14.500003 L 11.000366 14.500003 M 13.000158 14.500003 L 15.999846 14.500003 M 16.999742 14.500003 L 21.000081 14.500003 M 21.999977 14.500003 L 22.999873 14.500003 M 23.999769 14.500003 L 27.000212 14.500003 M 1.999792 15.499899 L 7.999923 15.499899 M 8.999819 15.499899 L 9.999715 15.499899 M 11.000366 15.499899 L 13.000158 15.499899 M 14.99995 15.499899 L 15.999846 15.499899 M 17.999638 15.499899 L 19.000289 15.499899 M 21.000081 15.499899 L 21.999977 15.499899 M 22.999873 15.499899 L 23.999769 15.499899 M 24.999665 15.499899 L 26.000316 15.499899 M 1.999792 16.499795 L 2.999688 16.499795 M 7.000027 16.499795 L 8.999819 16.499795 M 11.000366 16.499795 L 20.000185 16.499795 M 21.000081 16.499795 L 23.999769 16.499795 M 24.999665 16.499795 L 27.000212 16.499795 M 1.999792 17.499691 L 2.999688 17.499691 M 4.00034 17.499691 L 5.000236 17.499691 M 7.000027 17.499691 L 7.999923 17.499691 M 9.999715 17.499691 L 12.000262 17.499691 M 13.000158 17.499691 L 14.000054 17.499691 M 16.999742 17.499691 L 17.999638 17.499691 M 21.000081 17.499691 L 22.999873 17.499691 M 26.000316 17.499691 L 27.000212 17.499691 M 1.999792 18.500342 L 2.999688 18.500342 M 4.00034 18.500342 L 6.000131 18.500342 M 7.000027 18.500342 L 8.999819 18.500342 M 9.999715 18.500342 L 16.999742 18.500342 M 17.999638 18.500342 L 22.999873 18.500342 M 23.999769 18.500342 L 24.999665 18.500342 M 9.999715 19.500238 L 11.000366 19.500238 M 12.000262 19.500238 L 13.000158 19.500238 M 14.000054 19.500238 L 14.99995 19.500238 M 16.999742 19.500238 L 19.000289 19.500238 M 21.999977 19.500238 L 23.999769 19.500238 M 1.999792 20.500134 L 8.999819 20.500134 M 12.000262 20.500134 L 13.000158 20.500134 M 14.99995 20.500134 L 15.999846 20.500134 M 17.999638 20.500134 L 19.000289 20.500134 M 20.000185 20.500134 L 21.000081 20.500134 M 21.999977 20.500134 L 22.999873 20.500134 M 23.999769 20.500134 L 27.000212 20.500134 M 1.999792 21.50003 L 2.999688 21.50003 M 7.999923 21.50003 L 8.999819 21.50003 M 9.999715 21.50003 L 12.000262 21.50003 M 13.000158 21.50003 L 14.000054 21.50003 M 15.999846 21.50003 L 16.999742 21.50003 M 17.999638 21.50003 L 19.000289 21.50003 M 21.999977 21.50003 L 23.999769 21.50003 M 24.999665 21.50003 L 27.000212 21.50003 M 1.999792 22.499926 L 2.999688 22.499926 M 4.00034 22.499926 L 7.000027 22.499926 M 7.999923 22.499926 L 8.999819 22.499926 M 9.999715 22.499926 L 11.000366 22.499926 M 12.000262 22.499926 L 22.999873 22.499926 M 23.999769 22.499926 L 24.999665 22.499926 M 1.999792 23.499822 L 2.999688 23.499822 M 4.00034 23.499822 L 7.000027 23.499822 M 7.999923 23.499822 L 8.999819 23.499822 M 9.999715 23.499822 L 12.000262 23.499822 M 13.000158 23.499822 L 15.999846 23.499822 M 16.999742 23.499822 L 21.000081 23.499822 M 21.999977 23.499822 L 27.000212 23.499822 M 1.999792 24.499718 L 2.999688 24.499718 M 4.00034 24.499718 L 7.000027 24.499718 M 7.999923 24.499718 L 8.999819 24.499718 M 9.999715 24.499718 L 11.000366 24.499718 M 14.99995 24.499718 L 17.999638 24.499718 M 22.999873 24.499718 L 24.999665 24.499718 M 26.000316 24.499718 L 27.000212 24.499718 M 1.999792 25.500369 L 2.999688 25.500369 M 7.999923 25.500369 L 8.999819 25.500369 M 15.999846 25.500369 L 16.999742 25.500369 M 17.999638 25.500369 L 19.000289 25.500369 M 20.000185 25.500369 L 23.999769 25.500369 M 26.000316 25.500369 L 27.000212 25.500369 M 1.999792 26.500265 L 8.999819 26.500265 M 9.999715 26.500265 L 11.000366 26.500265 M 12.000262 26.500265 L 16.999742 26.500265 M 19.000289 26.500265 L 27.000212 26.500265 " stroke="#000000" stroke-width="1" stroke-opacity="1" stroke-miterlimit="4"/></svg>